<svg width="300" height="264" viewBox="0 0 300 264" fill="none" xmlns="http://www.w3.org/2000/svg">
<g clip-path="url(#clip0_1_578)">
<path d="M229.5 161.315C229.194 160.379 226.875 160.791 226.652 159.954C226.43 159.119 228.655 158.42 230.362 156.069C230.67 155.644 232.609 152.973 231.865 151.849C230.455 149.719 220.647 155.024 218.292 152.047C217.776 151.393 217.563 150.272 216.024 148.184C215.411 147.354 215.018 146.953 214.549 146.965C213.883 146.981 213.645 147.815 212.598 149.324C211.028 151.588 210.461 151.303 209.427 153.158C208.659 154.535 208.568 155.415 208.015 155.467C207.231 155.54 206.908 153.826 205.95 153.759C204.973 153.691 203.996 155.385 203.511 156.708C202.602 159.192 203.165 161.09 203.29 162.982C203.425 165.037 203.107 168.047 200.873 171.909L179.805 205.475C184.33 198.633 197.173 179.973 202.348 173.129C203.842 171.153 205.447 169.169 207.918 168.795C210.297 168.436 213.191 169.613 217.231 169.544C217.703 169.536 219.016 169.497 219.335 168.801C219.599 168.226 218.944 167.726 219.182 167.185C219.502 166.46 220.941 166.771 222.903 166.289C224.286 165.949 225.226 165.388 226.034 164.905C226.278 164.76 229.907 162.561 229.5 161.315Z" fill="#F2F2F2"/>
<path d="M174.319 169.152C173.771 169.032 173.304 170.289 172.829 170.157C172.356 170.025 172.654 168.731 171.993 167.215C171.873 166.942 171.121 165.219 170.355 165.26C168.903 165.337 168.677 171.682 166.536 171.978C166.066 172.044 165.454 171.824 163.986 171.977C163.402 172.038 163.091 172.116 162.962 172.349C162.778 172.681 163.118 173.038 163.557 173.988C164.215 175.411 163.912 175.607 164.524 176.65C164.978 177.424 165.383 177.723 165.249 178.009C165.059 178.415 164.124 178.079 163.816 178.53C163.5 178.99 164.05 179.958 164.559 180.578C165.516 181.741 166.61 182.012 167.574 182.497C168.622 183.023 170.007 184.048 171.259 186.259L181.655 206.284C179.602 202.089 174.149 190.401 172.283 185.887C171.744 184.584 171.233 183.223 171.763 181.903C172.273 180.632 173.686 179.551 174.818 177.548C174.95 177.314 175.31 176.658 175.06 176.301C174.854 176.005 174.42 176.183 174.223 175.91C173.959 175.543 174.527 174.927 174.857 173.825C175.089 173.048 175.085 172.425 175.081 171.889C175.08 171.727 175.048 169.312 174.319 169.152Z" fill="#F2F2F2"/>
<path d="M184.69 174.038L185.017 171.021L185.217 170.831C186.145 169.955 186.725 169.027 186.942 168.071C186.977 167.919 187.004 167.766 187.031 167.609C187.14 166.989 187.274 166.218 187.871 165.417C188.204 164.97 189.087 163.962 189.998 164.314C190.244 164.406 190.41 164.566 190.525 164.735C190.554 164.705 190.583 164.676 190.615 164.644C191.008 164.262 191.284 164.122 191.549 163.987C191.752 163.883 191.963 163.777 192.319 163.492C192.475 163.367 192.6 163.255 192.705 163.16C193.025 162.875 193.433 162.541 193.993 162.673C194.586 162.836 194.79 163.402 194.925 163.776C195.166 164.445 195.24 164.905 195.289 165.209C195.307 165.321 195.328 165.446 195.343 165.487C195.473 165.814 197.103 165.899 197.717 165.934C199.096 166.009 200.289 166.074 200.576 167.018C200.782 167.694 200.353 168.43 199.264 169.266C198.925 169.526 198.586 169.706 198.29 169.84C198.472 170.012 198.617 170.245 198.625 170.564C198.645 171.317 197.873 171.895 196.329 172.285C195.945 172.383 195.429 172.512 194.754 172.48C194.436 172.464 194.157 172.415 193.92 172.37C193.884 172.505 193.82 172.646 193.702 172.779C193.359 173.172 192.804 173.272 192.051 173.051C191.219 172.819 190.562 172.504 189.982 172.227C189.476 171.986 189.039 171.779 188.673 171.723C187.992 171.628 187.356 172.048 186.596 172.608L184.69 174.038Z" fill="#F2F2F2"/>
<path d="M190.128 156.854L187.127 157.303L186.893 157.158C185.81 156.483 184.765 156.157 183.786 156.189C183.63 156.194 183.474 156.207 183.316 156.22C182.689 156.273 181.908 156.338 180.982 155.964C180.466 155.755 179.267 155.157 179.376 154.186C179.403 153.925 179.515 153.724 179.649 153.57C179.614 153.55 179.578 153.528 179.539 153.506C179.07 153.222 178.864 152.992 178.667 152.769C178.515 152.599 178.358 152.422 177.992 152.15C177.832 152.031 177.692 151.938 177.574 151.86C177.217 151.624 176.79 151.313 176.776 150.738C176.782 150.123 177.278 149.783 177.607 149.557C178.192 149.154 178.618 148.966 178.9 148.841C179.003 148.796 179.12 148.744 179.155 148.719C179.439 148.51 179.107 146.911 178.986 146.309C178.708 144.956 178.468 143.785 179.309 143.268C179.91 142.898 180.732 143.126 181.816 143.967C182.154 144.23 182.413 144.512 182.618 144.764C182.738 144.545 182.927 144.345 183.233 144.256C183.957 144.046 184.712 144.646 185.481 146.041C185.673 146.387 185.929 146.853 186.068 147.515C186.134 147.826 186.157 148.108 186.174 148.349C186.314 148.349 186.466 148.377 186.625 148.456C187.093 148.688 187.33 149.2 187.307 149.985C187.293 150.848 187.155 151.563 187.034 152.194C186.929 152.745 186.841 153.22 186.879 153.589C186.96 154.272 187.528 154.78 188.262 155.374L190.128 156.854Z" fill="#F2F2F2"/>
<path d="M190.533 147.842L190.86 144.825L191.06 144.635C191.987 143.759 192.567 142.831 192.785 141.875C192.82 141.723 192.846 141.569 192.874 141.413C192.982 140.793 193.117 140.022 193.714 139.221C194.047 138.774 194.93 137.766 195.841 138.118C196.087 138.21 196.252 138.37 196.368 138.538C196.397 138.509 196.426 138.48 196.458 138.448C196.851 138.066 197.126 137.926 197.391 137.791C197.595 137.687 197.805 137.581 198.161 137.296C198.317 137.171 198.442 137.059 198.548 136.964C198.867 136.679 199.276 136.345 199.836 136.477C200.429 136.64 200.633 137.206 200.768 137.58C201.009 138.249 201.083 138.708 201.132 139.013C201.15 139.125 201.17 139.25 201.186 139.291C201.316 139.618 202.946 139.703 203.56 139.738C204.939 139.813 206.132 139.878 206.419 140.822C206.625 141.498 206.196 142.234 205.107 143.07C204.767 143.33 204.428 143.51 204.133 143.644C204.315 143.816 204.459 144.049 204.468 144.368C204.488 145.121 203.715 145.699 202.172 146.089C201.788 146.187 201.272 146.316 200.597 146.284C200.279 146.268 200 146.219 199.763 146.174C199.727 146.309 199.662 146.45 199.545 146.583C199.202 146.976 198.647 147.076 197.894 146.855C197.062 146.623 196.405 146.308 195.825 146.031C195.319 145.79 194.882 145.583 194.516 145.527C193.834 145.432 193.199 145.852 192.438 146.412L190.533 147.842Z" fill="#F2F2F2"/>
<path d="M180.801 205.647L180.271 205.123L179.533 205.045C179.537 204.976 179.532 204.814 179.527 204.56C179.498 203.172 179.41 198.948 179.998 192.458C180.409 187.928 181.095 183.329 182.038 178.788C182.983 174.239 183.963 170.855 184.75 168.134C185.344 166.083 185.944 164.137 186.529 162.241C188.091 157.177 189.566 152.393 190.48 146.936C190.684 145.718 191.109 143.183 190.24 140.19C189.735 138.454 188.872 136.82 187.672 135.335L188.833 134.398C190.157 136.039 191.112 137.848 191.672 139.775C192.636 143.093 192.173 145.856 191.951 147.184C191.021 152.737 189.531 157.567 187.954 162.68C187.371 164.568 186.774 166.506 186.182 168.549C185.402 171.244 184.431 174.599 183.499 179.089C182.566 183.577 181.889 188.119 181.483 192.592C180.902 199.001 180.989 203.162 181.018 204.529C181.033 205.259 181.036 205.412 180.801 205.647Z" fill="#F2F2F2"/>
<path d="M184.488 137.052C184.428 137.039 184.368 137.024 184.308 137.006C183.083 136.663 182.101 135.665 181.388 134.041C181.054 133.277 180.975 132.473 180.818 130.87C180.793 130.623 180.684 129.372 180.818 127.715C180.905 126.632 181.022 126.197 181.316 125.855C181.644 125.475 182.085 125.257 182.551 125.147C182.563 125.004 182.61 124.864 182.703 124.731C183.087 124.179 183.728 124.406 184.076 124.524C184.252 124.587 184.47 124.667 184.716 124.708C185.103 124.775 185.334 124.707 185.683 124.606C186.017 124.509 186.433 124.388 187.007 124.399C188.14 124.414 188.979 124.924 189.256 125.091C190.713 125.967 191.216 127.364 191.798 128.981C191.914 129.305 192.298 130.477 192.387 131.986C192.452 133.074 192.309 133.52 192.146 133.838C191.812 134.494 191.3 134.797 190.03 135.436C188.704 136.105 188.038 136.44 187.493 136.613C186.223 137.011 185.426 137.262 184.488 137.052Z" fill="#F2F2F2"/>
<path d="M50.8087 130.9C49.8247 130.858 49.3986 133.174 48.5363 133.09C47.6771 133.005 47.8012 130.676 46.1966 128.254C45.9073 127.817 44.0838 125.065 42.7707 125.368C40.2816 125.943 41.8154 136.988 38.2021 138.151C37.4091 138.406 36.284 138.212 33.7896 138.922C32.7972 139.205 32.2841 139.433 32.1308 139.877C31.9132 140.506 32.6102 141.021 33.6573 142.531C35.2276 144.794 34.763 145.225 36.1379 146.843C37.1586 148.045 37.9507 148.438 37.8054 148.975C37.5997 149.734 35.8807 149.437 35.4831 150.31C35.0774 151.202 36.3215 152.711 37.3912 153.628C39.3987 155.35 41.3738 155.487 43.1894 156.033C45.1624 156.626 47.8694 157.978 50.7048 161.423L74.7654 192.914C69.9409 186.279 56.9619 167.713 52.3636 160.469C51.0361 158.378 49.7401 156.179 50.2559 153.734C50.7525 151.38 52.8687 149.081 54.2196 145.273C54.3774 144.829 54.8008 143.585 54.2608 143.042C53.8143 142.593 53.1161 143.032 52.6931 142.619C52.1256 142.066 52.9213 140.826 53.1571 138.82C53.3233 137.406 53.1267 136.329 52.9576 135.403C52.9066 135.124 52.1186 130.955 50.8087 130.9Z" fill="#F2F2F2"/>
<path d="M38.8212 185.33C38.517 185.801 39.5308 186.678 39.2405 187.077C38.9511 187.474 37.8438 186.741 36.1922 186.83C35.8943 186.846 34.0173 186.947 33.7872 187.679C33.3509 189.066 39.2146 191.5 38.7426 193.609C38.639 194.072 38.2193 194.568 37.8483 195.998C37.7008 196.566 37.6644 196.884 37.838 197.087C38.0843 197.376 38.5382 197.182 39.581 197.104C41.145 196.986 41.2225 197.338 42.4135 197.131C43.2976 196.976 43.7193 196.701 43.9407 196.927C44.2542 197.247 43.6123 198.005 43.9263 198.452C44.2466 198.909 45.3462 198.733 46.1051 198.473C47.5293 197.984 48.1666 197.055 48.9582 196.321C49.8186 195.524 51.2634 194.585 53.7724 194.188L76.1703 191.465C71.5219 191.918 58.6649 192.932 53.7827 193.098C52.3733 193.146 50.9203 193.148 49.8691 192.19C48.857 191.267 48.3393 189.565 46.8601 187.803C46.6873 187.597 46.1992 187.031 45.7769 187.139C45.4278 187.229 45.4417 187.698 45.117 187.786C44.6815 187.905 44.3029 187.157 43.3864 186.463C42.7401 185.973 42.1548 185.759 41.6516 185.574C41.4999 185.519 39.2262 184.703 38.8212 185.33Z" fill="#F2F2F2"/>
<path d="M47.0305 177.327L44.3191 175.964L44.2118 175.71C43.7158 174.534 43.0493 173.666 42.2305 173.127C42.1004 173.042 41.9658 172.963 41.8289 172.882C41.2859 172.563 40.6108 172.167 40.0695 171.328C39.7684 170.859 39.133 169.679 39.7819 168.949C39.9543 168.751 40.1616 168.652 40.3602 168.603C40.3428 168.566 40.3259 168.528 40.3072 168.487C40.087 167.985 40.0522 167.678 40.0188 167.382C39.9929 167.155 39.9666 166.921 39.8246 166.488C39.7624 166.298 39.701 166.141 39.6495 166.01C39.4942 165.61 39.3244 165.111 39.6444 164.633C40.0042 164.134 40.6057 164.141 41.004 164.146C41.7145 164.154 42.1711 164.246 42.4738 164.307C42.5843 164.329 42.709 164.354 42.7526 164.354C43.1047 164.347 43.7551 162.849 44.0031 162.287C44.5562 161.021 45.0349 159.926 46.0198 159.988C46.7246 160.032 47.2644 160.692 47.6658 162.005C47.7906 162.414 47.8399 162.794 47.8619 163.118C48.0865 163.008 48.3561 162.954 48.6573 163.057C49.37 163.303 49.6408 164.229 49.4651 165.811C49.4225 166.205 49.3631 166.734 49.0959 167.355C48.9698 167.647 48.8266 167.891 48.7008 168.097C48.8151 168.178 48.9242 168.288 49.0082 168.445C49.2563 168.904 49.1556 169.459 48.6841 170.087C48.1758 170.784 47.6505 171.29 47.1879 171.735C46.7846 172.125 46.4384 172.462 46.2573 172.785C45.9294 173.39 46.1009 174.133 46.359 175.041L47.0305 177.327Z" fill="#F2F2F2"/>
<path d="M32.8401 166.214L32.2096 169.182L31.991 169.351C30.9798 170.129 30.3088 170.993 29.9956 171.922C29.9457 172.07 29.9035 172.22 29.8604 172.373C29.6896 172.979 29.4775 173.732 28.8032 174.469C28.4259 174.879 27.4455 175.793 26.5752 175.35C26.3401 175.234 26.1912 175.059 26.0936 174.879C26.0619 174.905 26.0294 174.931 25.9947 174.96C25.5647 175.3 25.2768 175.411 24.9994 175.519C24.7863 175.601 24.5662 175.686 24.1833 175.933C24.0154 176.042 23.8796 176.141 23.7653 176.224C23.4185 176.476 22.9781 176.767 22.4346 176.578C21.8606 176.357 21.7155 175.773 21.6191 175.387C21.447 174.697 21.4196 174.232 21.4016 173.924C21.3953 173.812 21.3876 173.685 21.3763 173.643C21.2802 173.304 19.6667 173.054 19.0599 172.957C17.6956 172.743 16.515 172.558 16.3251 171.589C16.1886 170.897 16.6901 170.207 17.8582 169.486C18.222 169.261 18.5776 169.117 18.8851 169.014C18.7217 168.824 18.6013 168.577 18.6247 168.26C18.6811 167.508 19.5084 167.011 21.0837 166.78C21.4753 166.721 22.0018 166.645 22.6703 166.745C22.985 166.793 23.2572 166.87 23.4889 166.939C23.5379 166.808 23.6167 166.675 23.7467 166.554C24.1283 166.197 24.6905 166.154 25.4174 166.451C26.2213 166.766 26.843 167.146 27.3918 167.48C27.8712 167.771 28.2847 168.021 28.6435 168.114C29.3118 168.277 29.9865 167.923 30.7997 167.443L32.8401 166.214Z" fill="#F2F2F2"/>
<path d="M24.5403 162.678L21.8289 161.316L21.7216 161.061C21.2256 159.886 20.5591 159.017 19.7403 158.479C19.6102 158.393 19.4756 158.314 19.3387 158.234C18.7957 157.915 18.1206 157.519 17.5793 156.68C17.2782 156.211 16.6428 155.03 17.2917 154.301C17.4641 154.103 17.6714 154.003 17.87 153.955C17.8526 153.917 17.8357 153.879 17.817 153.838C17.5968 153.336 17.562 153.029 17.5286 152.734C17.5027 152.507 17.4764 152.272 17.3344 151.839C17.2722 151.649 17.2108 151.493 17.1593 151.361C17.004 150.962 16.8342 150.462 17.1542 149.984C17.514 149.485 18.1155 149.493 18.5138 149.498C19.2243 149.506 19.6808 149.598 19.9836 149.658C20.0941 149.681 20.2188 149.705 20.2624 149.705C20.6145 149.698 21.2649 148.201 21.5129 147.638C22.066 146.373 22.5447 145.278 23.5296 145.34C24.2344 145.384 24.7742 146.044 25.1756 147.357C25.3003 147.765 25.3496 148.146 25.3717 148.47C25.5963 148.36 25.8659 148.306 26.1671 148.409C26.8798 148.654 27.1506 149.58 26.9749 151.163C26.9322 151.557 26.8729 152.085 26.6057 152.706C26.4796 152.999 26.3364 153.242 26.2106 153.449C26.3249 153.53 26.4339 153.64 26.518 153.796C26.7661 154.256 26.6654 154.81 26.1939 155.438C25.6856 156.136 25.1603 156.641 24.6977 157.087C24.2944 157.477 23.9482 157.814 23.7671 158.137C23.4392 158.742 23.6107 159.484 23.8688 160.393L24.5403 162.678Z" fill="#F2F2F2"/>
<path d="M75.2752 192.041L74.5984 192.354L74.267 193.018C74.2033 192.99 74.0497 192.938 73.8105 192.854C72.5006 192.395 68.5134 190.998 62.6405 188.173C58.541 186.202 54.4739 183.948 50.5503 181.474C46.6206 178.997 43.7939 176.893 41.5217 175.203C39.8081 173.928 38.1954 172.684 36.625 171.472C32.4287 168.235 28.4646 165.178 23.6735 162.411C22.6043 161.793 20.378 160.507 17.2704 160.273C15.468 160.137 13.6352 160.374 11.8242 160.977L11.3527 159.561C13.3533 158.896 15.3825 158.636 17.3837 158.786C20.8293 159.046 23.2551 160.447 24.4206 161.12C29.2962 163.936 33.2983 167.023 37.5349 170.291C39.1 171.499 40.7053 172.737 42.412 174.007C44.6631 175.681 47.4653 177.766 51.3446 180.212C55.2211 182.657 59.2385 184.883 63.2861 186.83C69.0851 189.618 73.0131 190.994 74.3036 191.446C74.9924 191.688 75.1367 191.739 75.2752 192.041Z" fill="#F2F2F2"/>
<path d="M12.3169 164.562C12.2835 164.613 12.2486 164.664 12.2107 164.714C11.4604 165.741 10.1817 166.311 8.4105 166.41C7.57816 166.456 6.79765 166.248 5.24106 165.834C5.00087 165.77 3.79126 165.434 2.28568 164.728C1.30171 164.267 0.935024 164.006 0.718342 163.61C0.476549 163.17 0.426889 162.681 0.487642 162.206C0.357735 162.144 0.242832 162.051 0.150934 161.917C-0.2314 161.365 0.205684 160.843 0.438106 160.558C0.558555 160.416 0.710143 160.239 0.835057 160.024C1.03298 159.685 1.0502 159.445 1.07781 159.083C1.10399 158.736 1.13652 158.304 1.3473 157.77C1.75887 156.714 2.52986 156.106 2.78377 155.906C4.11417 154.848 5.59866 154.866 7.31743 154.887C7.66159 154.892 8.89359 154.943 10.3382 155.388C11.3805 155.709 11.7479 155.998 11.989 156.263C12.4855 156.805 12.5907 157.391 12.7444 158.804C12.9068 160.281 12.9874 161.021 12.9576 161.593C12.8862 162.922 12.8414 163.756 12.3169 164.562Z" fill="#F2F2F2"/>
<path d="M29.3793 207.197C29.3793 207.436 29.7141 207.628 30.131 207.628H269.572C269.989 207.628 270.324 207.436 270.324 207.197C270.324 206.959 269.989 206.767 269.572 206.767H30.131C29.7141 206.767 29.3793 206.959 29.3793 207.197Z" fill="#CCCCCC"/>
<path d="M119.101 65.923C125.483 65.923 130.657 60.7494 130.657 54.3675C130.657 47.9856 125.483 42.812 119.101 42.812C112.719 42.812 107.546 47.9856 107.546 54.3675C107.546 60.7494 112.719 65.923 119.101 65.923Z" fill="#FF6884"/>
<path d="M171.199 205.259C171.264 205.812 171.283 206.326 171.246 206.832H143.453C143.201 206.326 142.985 205.802 142.798 205.259C139.4 195.496 144.989 179.246 137.902 155.151C132.642 137.271 122.822 123.286 118.245 116.771C112.619 108.758 106.244 101.363 98.8582 89.5498C97.2576 86.9943 95.6101 84.2235 93.9064 81.2C93.3354 80.189 86.7547 68.4599 87.3538 68.0948C87.6346 67.9263 89.3757 70.2946 89.9654 71.0903C95.1701 78.1296 98.1937 81.2093 102.528 86.2735C105.158 89.3439 108.266 93.135 112.628 98.9856C123.814 113.972 129.403 121.461 131.35 127.068C131.865 128.566 134.607 136.672 139.775 146.726C142.414 151.856 143.734 154.421 144.455 154.215C146.496 153.625 143.744 132.385 135.094 111.155C133.615 107.541 132.511 105.229 130.414 100.858C127.006 93.7248 108.032 54.0815 94.0842 30.3518C92.3337 27.3657 90.6582 24.6417 89.1136 22.2547C88.8141 21.8053 88.5239 21.3654 88.2431 20.9442C86.296 18.0423 84.5736 15.7488 83.1414 14.2699C82.3832 13.4835 80.4548 11.2556 76.5888 6.78118C75.0536 5.0026 73.9303 3.68275 73.1721 2.71855C73.0597 2.57817 72.9568 2.43773 72.8726 2.31604C71.9551 1.11788 71.6931 0.537454 71.9084 0.228588C72.2173 -0.211402 73.4061 0.041361 74.7072 0.500032C74.8477 0.546826 74.9974 0.602987 75.1379 0.659149C76.5514 1.18336 77.9835 1.86673 78.461 2.10076C82.8418 4.20695 87.1197 7.97934 91.0794 12.4632C92.549 14.1201 93.9625 15.8705 95.3292 17.6679C99.7288 23.4715 103.567 29.7901 106.469 34.9854C110.026 41.3882 112.16 46.0968 112.16 46.0968C122.092 68.0292 133.11 93.1163 133.69 92.901C134.327 92.667 122.111 61.4392 118.554 44.4773C117.365 38.7953 117.149 34.7139 118.713 33.9277C118.769 33.8995 118.825 33.8715 118.89 33.8528C119.134 33.7685 119.359 33.7779 119.48 33.7872C119.48 33.7872 120.931 33.6 122.457 33.9277C124.357 34.3395 126.52 39.6284 128.626 47.0515C134.102 66.1851 139.306 99.4536 139.306 99.4536C144.511 132.731 152.412 159.663 154.284 159.363C155.323 159.195 153.835 150.835 155.22 136.897C156.193 127.124 157.298 127.424 160.836 109.751C166.453 81.7148 169.261 67.7016 169.261 67.6267C169.233 67.037 169.158 65.8481 169.336 64.6125C169.523 63.2739 170.001 61.8698 171.133 61.0741C172.856 59.8572 175.627 60.3814 176.75 61.0741C177.649 61.6358 178.107 62.6655 178.21 64.1445C178.828 73.4492 165.461 100.427 160.836 136.897C158.534 155.066 157.27 164.98 160.836 178.085C164.366 191.078 170.516 199.353 171.199 205.259Z" fill="#CCCCCC"/>
<path d="M217.419 202.393L219.777 195.118L241.258 204.534L239.661 209.464L217.419 202.393Z" fill="#A0616A"/>
<path d="M234.591 201.235L234.758 204.144L236.258 204.723C236.258 204.723 234.292 204.646 232.671 207.699L233.975 208.646C233.975 208.646 234.918 210.44 237.578 211.228L244.795 213.093L245.677 210.658L241.026 208.403C241.026 208.403 240.195 207.315 246.562 206.263C246.562 206.263 248.712 205.8 248.989 199.895C249.027 199.083 248.55 198.324 247.789 198.04C247.369 197.882 246.92 197.896 246.578 198.366C245.707 199.563 245.648 201.039 244.249 201.487C242.85 201.935 234.591 201.235 234.591 201.235Z" fill="#2F2E41"/>
<path d="M204.226 218.38L207.124 211.303L227.836 222.308L225.873 227.104L204.226 218.38Z" fill="#A0616A"/>
<path d="M221.436 218.517L221.384 221.431L222.836 222.12C222.836 222.12 220.882 221.896 219.036 224.819L220.265 225.86C220.265 225.86 221.07 227.72 223.663 228.706L230.72 231.109L231.782 228.747L227.314 226.149C227.314 226.149 226.567 225.001 232.995 224.431C232.995 224.431 235.174 224.131 235.894 218.263C235.993 217.457 235.575 216.664 234.837 216.323C234.43 216.135 233.981 216.114 233.605 216.558C232.646 217.686 232.477 219.153 231.048 219.495C229.619 219.836 221.436 218.517 221.436 218.517Z" fill="#2F2E41"/>
<path d="M166.714 141.867C167.54 142.664 169.664 140.921 169.743 142.066C169.822 143.211 167.854 147.232 167.145 148.134C166.793 148.583 166.361 148.964 166.013 149.416C165.664 149.867 165.396 150.421 165.451 150.988C165.547 151.976 166.547 152.629 166.882 153.563C167.274 154.651 166.693 155.827 166.115 156.828C165.617 157.691 165.101 158.558 164.393 159.259C163.686 159.961 162.757 160.49 161.761 160.523C160.493 160.565 159.345 159.821 158.333 159.055C157.361 158.319 156.416 157.526 155.679 156.553C154.942 155.581 154.422 154.411 154.394 153.191C154.36 151.662 155.107 150.193 156.152 149.075C157.196 147.958 158.521 147.145 159.858 146.401C162.109 145.147 164.444 144.044 166.842 143.102" fill="#2F2E41"/>
<path d="M162.444 155.579C166.452 155.579 169.702 152.329 169.702 148.321C169.702 144.312 166.452 141.063 162.444 141.063C158.435 141.063 155.186 144.312 155.186 148.321C155.186 152.329 158.435 155.579 162.444 155.579Z" fill="#A0616A"/>
<path d="M173.059 168.865L180.599 181.747L194.714 189.207L191.047 192.612L177.326 187.436L167.824 175.232L168.593 169.294L173.059 168.865Z" fill="#A0616A"/>
<path d="M157.53 156.573L164.088 158.288L163.994 161.437L169.552 170.932C169.552 170.932 174.81 176.96 170.294 181.333L173.053 184.435L154.351 192.237L146.131 169.062L153.628 160.114L157.53 156.573Z" fill="#9292FD"/>
<path d="M162.822 162.122C162.822 162.122 166.781 157.604 169.854 161.779C172.928 165.955 174.458 170.719 174.458 170.719L167.207 174.178L162.822 162.122Z" fill="#9292FD"/>
<path d="M152.943 191.175C152.943 191.175 169.289 181.764 172.622 183.429L178.914 191.223L184.823 191.381L210.58 188.695L223.353 196.499L217.932 202.817L209.135 198.533L196.078 203.151C196.078 203.151 200.841 203.702 200.992 206.915L211.129 212.145L204.028 218.817L190.236 211.639C190.236 211.639 166.603 210.234 159.267 202.258C151.932 194.282 152.943 191.175 152.943 191.175Z" fill="#2F2E41"/>
<path d="M157.839 153.876L158.91 151.677C158.91 151.677 166.995 144.271 169.343 146.67L169.612 149.815C169.612 149.815 171.057 149.598 170.614 147.498C170.172 145.399 171.023 146.316 171.023 146.316C171.023 146.316 172.888 146.01 171.508 144.46C170.129 142.909 170.114 139.93 165.399 141.275C162.78 142.022 159.505 143.638 157.111 144.927C154.423 146.374 153.597 149.924 155.491 152.317C156.057 153.032 156.817 153.609 157.839 153.876Z" fill="#2F2E41"/>
<path d="M199.48 195.537C200.499 194.097 199.516 191.649 197.283 190.069C195.051 188.49 192.415 188.377 191.396 189.817C190.377 191.257 191.361 193.705 193.593 195.285C195.825 196.864 198.461 196.977 199.48 195.537Z" fill="#A0616A"/>
<path d="M183.877 156.177L184.601 158.348H183.877C183.877 158.348 184.782 163.233 181.887 163.956C178.993 164.68 176.322 160.067 176.322 160.067L175.013 160.7C175.013 160.7 176.098 166.127 172.118 166.851C168.138 167.575 166.691 162.871 166.691 162.871L157.284 163.595L157.646 160.7L166.168 161.552C166.168 161.552 165.967 159.253 171.033 158.891L178.269 157.444L183.877 156.177Z" fill="#2F2E41"/>
<path d="M153.757 167.586L153.528 171.493L166.093 167.44L166.198 171.403L151.195 181.93C151.195 181.93 146.833 175.74 146.318 173.598C145.803 171.456 146.071 168.154 146.071 168.154L153.757 167.586Z" fill="#A0616A"/>
<path d="M155.642 161.136C155.642 161.136 151.221 156.806 148.902 160.365C146.582 163.924 145.351 170.148 145.351 170.148L154.531 169.177L155.642 161.136Z" fill="#9292FD"/>
<path d="M151.652 157.248C152.679 160.014 152.762 163.122 151.883 165.939C153.976 165.525 155.728 163.951 156.683 162.043C157.638 160.134 157.867 157.928 157.691 155.801L157.686 155.737C157.409 152.542 159.231 149.528 162.221 148.369C164.239 147.587 166.112 146.434 167.703 144.967C168.601 144.138 169.469 143.032 169.276 141.826C169.098 140.714 168.085 139.952 167.124 139.367C164.927 138.032 162.501 136.965 159.938 136.776C157.375 136.587 154.653 137.377 152.921 139.277C151.189 141.176 150.706 144.26 152.155 146.383C151.513 146.42 150.931 146.937 150.819 147.57C150.707 148.203 151.077 148.889 151.667 149.144C151.27 149.025 150.895 149.491 150.94 149.903C150.985 150.316 151.293 150.645 151.594 150.93C152.024 151.336 152.504 151.769 152.318 152.49C152.243 152.779 152.067 153.032 151.838 153.223C151.281 153.685 150.556 153.768 149.86 153.843C151.096 154.588 151.852 156.065 151.732 157.504" fill="#2F2E41"/>
<path d="M169.026 170.362C170.948 168.417 171.489 165.835 170.234 164.595C168.979 163.355 166.403 163.926 164.481 165.871C162.559 167.817 162.019 170.399 163.274 171.639C164.528 172.879 167.104 172.307 169.026 170.362Z" fill="#A0616A"/>
<path d="M276.572 77.0393C275.531 77.6245 273.85 75.3098 273.469 76.442C273.088 77.5742 274.011 82.1426 274.487 83.2382C274.723 83.7828 275.058 84.2809 275.29 84.8274C275.522 85.374 275.646 86.0023 275.441 86.5595C275.084 87.5292 273.906 87.9236 273.321 88.7759C272.641 89.7685 272.916 91.1055 273.234 92.2661C273.508 93.2666 273.8 94.276 274.328 95.169C274.856 96.062 275.652 96.8396 276.646 97.135C277.912 97.5112 279.265 97.0642 280.486 96.5594C281.659 96.0742 282.82 95.5241 283.818 94.739C284.816 93.954 285.649 92.9119 285.998 91.691C286.435 90.1595 286.07 88.4835 285.312 87.0825C284.554 85.6815 283.433 84.5143 282.283 83.4123C280.346 81.5564 278.285 79.8303 276.118 78.2493" fill="#2F2E41"/>
<path d="M292.06 155.621L289.889 175.883C289.889 175.883 294.954 186.376 289.527 199.04L289.165 206.276L283.014 205.552L284.462 199.401L281.205 174.436L278.673 156.345L292.06 155.621Z" fill="#FFB6B6"/>
<path d="M274.693 155.26C274.693 155.26 276.14 171.18 273.245 179.501C273.245 179.501 274.693 192.165 270.713 205.552V215.519L264.2 214.236L264.562 176.969L262.752 156.707L274.693 155.26Z" fill="#FFB6B6"/>
<path d="M273.767 93.2945C275.601 95.605 278.835 96.2745 281.445 94.8992C285.17 92.9362 290.256 90.6863 291.155 92.4841C292.603 95.3786 292.603 98.1877 292.603 98.1877L294.05 131.922C294.05 131.922 294.773 145.543 285.728 144.341C276.683 143.139 262.572 148.204 262.572 148.204L264.013 133.259L267.862 127.625L269.421 111.459L266.732 98.4541L269.989 97.0068C269.989 97.0068 270.351 94.4741 271.436 94.4741C272.522 94.4741 272.784 92.041 273.738 93.2576L273.767 93.2945Z" fill="#9292FD"/>
<path d="M292.783 131.38L293.507 171.736C293.507 171.736 286.994 181.867 280.12 173.545L276.14 153.451L275.416 176.801C275.416 176.801 265.647 181.867 262.752 177.887L262.572 148.204L269.265 134.636L292.783 131.38Z" fill="#2F2E41"/>
<path d="M289.378 202.012C289.378 202.012 291.698 203.743 290.974 205.914C290.251 208.085 284.823 216.407 280.12 215.322C275.416 214.236 277.587 211.703 277.587 211.703L283.014 203.743C283.014 203.743 285.185 204.105 286.271 204.829C287.356 205.552 289.378 202.012 289.378 202.012Z" fill="#2F2E41"/>
<path d="M270.712 212.427C270.712 212.427 274.693 216.407 272.522 218.216C270.351 220.025 255.516 221.472 255.878 219.301C256.24 217.131 263.838 210.98 263.838 210.98C263.838 210.98 266.009 210.256 266.732 212.065C267.456 213.874 270.712 212.427 270.712 212.427Z" fill="#2F2E41"/>
<path d="M279.173 92.2214C283.347 92.2214 286.73 88.8384 286.73 84.6652C286.73 80.4919 283.347 77.1089 279.173 77.1089C275 77.1089 271.617 80.4919 271.617 84.6652C271.617 88.8384 275 92.2214 279.173 92.2214Z" fill="#FFB6B6"/>
<path d="M287.691 96.4992C285.928 99.015 285.026 102.123 285.169 105.193C283.169 104.224 281.82 102.177 281.36 100.003C280.901 97.8296 281.252 95.547 281.99 93.4513C281.997 93.4303 282.004 93.4094 282.012 93.3884C283.133 90.2428 282.091 86.7271 279.384 84.7717C277.558 83.4527 275.975 81.798 274.76 79.9012C274.073 78.8304 273.49 77.4871 274.003 76.3232C274.475 75.2507 275.695 74.7494 276.818 74.414C279.382 73.6481 282.107 73.2123 284.738 73.697C287.37 74.1816 289.903 75.695 291.147 78.0644C292.391 80.4337 292.065 83.6673 290.046 85.4238C290.683 85.6296 291.134 86.3045 291.079 86.9715C291.025 87.6385 290.472 88.232 289.81 88.3326C290.242 88.3173 290.497 88.8858 290.343 89.2894C290.189 89.6929 289.792 89.9436 289.413 90.1513C288.874 90.4472 288.276 90.7566 288.274 91.5314C288.273 91.842 288.384 92.1435 288.565 92.396C289.003 93.0079 289.711 93.2835 290.393 93.5422C288.951 93.9669 287.802 95.2556 287.543 96.7364" fill="#2F2E41"/>
<path d="M285.477 139.006C283.816 140.239 281.835 140.382 281.05 139.325C280.266 138.268 280.976 136.412 282.637 135.179C283.294 134.678 284.061 134.341 284.875 134.196L291.975 129.061L294.314 132.445L287.066 137.148C286.692 137.885 286.147 138.522 285.477 139.006Z" fill="#FFB6B6"/>
<path d="M289.95 97.1877C289.95 97.1877 295.678 97.3687 296.763 101.349C297.849 105.329 300.02 113.812 299.658 125.591C299.658 125.591 301.467 133.189 296.763 132.827L290.251 135.721L285.909 129.932L289.527 125.591L289.95 97.1877Z" fill="#9292FD"/>
<path d="M125.029 225.447L119.614 213.738L113.606 216.759L116.982 227.342L123.007 230.285L125.029 225.447Z" fill="#FFB6B6"/>
<path d="M82.29 191.945C82.7724 192.162 84.2396 193.039 86.0434 192.743C87.2745 192.541 88.1015 191.886 88.3749 191.681C91.767 189.14 102.102 186.966 109.841 189.349C111.594 189.889 112.66 190.492 113.502 191.397C114.697 192.679 114.894 193.981 115.845 197.202C116.365 198.964 117.023 200.684 117.558 202.441C120.695 212.731 122.752 214.18 121.592 216.712C120.306 219.52 116.202 221.164 114.236 220.11C113.43 219.678 113.31 218.969 112.597 217.367C110.507 212.671 108.897 212.831 107.476 209.298C105.817 205.173 107.103 202.696 105.692 202.083C104.384 201.514 103.026 203.535 99.1162 205.473C97.327 206.36 96.1741 206.649 92.6324 207.614C78.8399 211.372 78.472 211.849 76.0207 211.67C74.9482 211.591 67.3362 211.035 65.9373 207.132C63.7481 201.025 77.9437 189.986 82.29 191.945Z" fill="#2F2E41"/>
<path d="M121.735 226.492C122.459 226.433 123.306 226.363 123.808 225.692C124.148 225.238 124.28 224.576 124.105 224.025C123.904 223.388 123.366 223.123 123.42 223.042C123.502 222.919 124.811 223.443 126.086 224.474C126.327 224.669 127.412 225.566 128.559 227.365C129.477 228.807 129.236 228.945 129.83 229.799C131.653 232.42 134.435 231.849 135.175 233.964C135.461 234.78 135.359 235.759 134.886 236.412C133.935 237.723 131.659 237.484 130.42 237.338C127.436 236.986 125.527 235.733 123.474 234.592C116.495 230.711 111.92 230.373 111.971 228.455C111.981 228.092 112.143 228.181 113.562 225.995C114.962 223.838 115.173 223.184 115.721 223.166C116.546 223.138 116.574 224.603 118.241 225.692C119.719 226.656 121.265 226.53 121.735 226.492Z" fill="#2F2E41"/>
<path d="M100.564 248.547L102.658 235.818L95.991 234.945L92.8415 245.597L96.1741 251.415L100.564 248.547Z" fill="#FFB6B6"/>
<path d="M83.2888 196.827C83.5658 197.278 84.2879 198.826 85.9466 199.595C87.0785 200.119 88.1309 200.041 88.4722 200.025C92.7056 199.828 102.478 203.832 107.544 210.15C108.691 211.581 109.234 212.678 109.423 213.9C109.691 215.632 109.124 216.819 108.102 220.019C107.543 221.769 107.121 223.561 106.578 225.316C103.395 235.591 104.283 237.946 101.902 239.39C99.2601 240.991 94.942 240.047 93.9069 238.07C93.4829 237.261 93.7817 236.607 94.0912 234.881C94.9987 229.821 93.5765 229.05 94.3847 225.328C95.3283 220.983 97.7837 219.656 96.9606 218.356C96.1973 217.151 93.939 218.061 89.6151 217.469C87.6366 217.198 86.5203 216.79 83.0478 215.6C69.5252 210.964 68.9528 211.152 67.0251 209.628C66.1816 208.961 59.9956 204.169 61.2294 200.211C66.8881 182.058 80.7923 192.765 83.2888 196.827Z" fill="#2F2E41"/>
<path d="M96.5281 247.562C97.1607 247.92 97.9004 248.338 98.693 248.065C99.2294 247.88 99.7099 247.406 99.875 246.852C100.066 246.212 99.7692 245.691 99.8594 245.654C99.9967 245.599 100.786 246.767 101.262 248.337C101.352 248.633 101.746 249.984 101.684 252.117C101.635 253.825 101.357 253.804 101.369 254.844C101.406 258.037 104.029 259.127 103.454 261.292C103.232 262.128 102.598 262.881 101.839 263.155C100.317 263.707 98.5672 262.23 97.6242 261.413C95.3529 259.447 94.4764 257.339 93.419 255.242C89.8229 248.111 86.228 245.262 87.3471 243.704C87.5589 243.409 87.643 243.574 90.0442 242.562C92.4142 241.563 92.9559 241.14 93.4196 241.433C94.1176 241.873 93.3184 243.101 94.0869 244.938C94.7679 246.567 96.1182 247.33 96.5281 247.562Z" fill="#2F2E41"/>
<path d="M77.0488 136.277L86.3503 135.613L89.2292 140.263L97.8663 142.699L94.6551 165.178L97.0395 189.103C97.0395 189.103 85.6859 196.957 84.8 200.501C83.9142 204.044 62.2109 196.957 62.2109 196.957L69.6299 174.036L68.9655 156.098L66.9723 145.689L76.0523 141.481L77.0488 136.277Z" fill="#3F3D56"/>
<path d="M72.8411 142.921C72.8411 142.921 65.4291 142.81 64.429 145.911C63.4289 149.011 60.107 170.493 60.107 170.493L57.5602 179.905L68.9655 174.258L66.5294 170.499L74.502 155.212L72.8411 142.921Z" fill="#3F3D56"/>
<path d="M77.3755 177.358C78.601 177.36 79.7404 176.653 80.2168 175.524C80.5772 174.67 80.5432 173.851 80.2736 173.148C80.3603 173.113 80.4464 173.075 80.5352 173.043C80.4047 172.99 80.2779 172.931 80.1511 172.871C79.7096 171.991 78.8632 171.352 77.8551 171.197C76.6064 169.86 75.8389 168.067 75.8309 166.095C75.8144 162.03 79.1122 158.634 83.1764 158.536C83.2084 158.535 83.2404 158.535 83.2723 158.534C85.0922 158.514 86.7431 159.532 87.6652 161.101C88.2032 162.016 89.1975 162.631 90.3366 162.631C91.2086 162.631 91.9953 162.271 92.5577 161.691C93.7829 160.427 95.317 159.487 97.0532 159.198C98.1934 159.009 99.3735 158.938 100.581 158.998C108.846 159.408 115.957 166.734 116.133 175.007C116.33 184.222 108.919 191.753 99.7487 191.753C94.9772 191.753 90.6841 189.713 87.69 186.458C86.3608 185.013 84.4981 184.203 82.5347 184.223C82.5147 184.223 82.4947 184.224 82.4747 184.224C79.2946 184.224 76.7167 181.646 76.7167 178.466C76.7167 178.289 76.7254 178.115 76.7419 177.943C76.7726 177.621 77.0524 177.358 77.3755 177.358Z" fill="#9292FD"/>
<path d="M104.621 172.486L49.4768 162.077L49.2554 166.064L103.956 179.13L104.621 172.486Z" fill="#9292FD"/>
<path d="M50.1412 162.742L49.4768 162.077C49.4768 162.077 46.5978 160.748 46.5978 160.527C46.5978 160.388 42.3466 158.948 39.1658 157.89C37.3895 157.299 35.5135 158.469 35.2606 160.324L34.862 163.247C34.6236 164.994 35.9424 166.567 37.7049 166.638L45.4905 166.949L49.2554 166.064L50.1412 162.742Z" fill="#9292FD"/>
<path d="M104.51 173.704L104.642 173.152L49.4624 162.603L49.3661 163.295L104.51 173.704Z" fill="#3F3D56"/>
<path d="M104.384 174.752L104.51 174.147L49.4023 163.695L49.3661 164.403L104.384 174.752Z" fill="#3F3D56"/>
<path d="M104.257 176.007L104.289 175.033L49.3591 164.49L49.3661 165.067L104.257 176.007Z" fill="#3F3D56"/>
<path d="M104.11 177.465L104.067 176.583L49.279 165.285L49.2318 165.501L104.11 177.465Z" fill="#3F3D56"/>
<path d="M104.109 178.349L104.067 177.69L49.3614 165.651L49.3123 165.866L104.109 178.349Z" fill="#3F3D56"/>
<path d="M72.4226 141.509L75.1664 139.99L76.3566 164.292L75.9415 167.282C75.9415 167.282 69.0143 148.18 72.4226 141.509Z" fill="#3F3D56"/>
<path d="M82.5339 133.952C86.3255 133.952 89.3992 130.878 89.3992 127.086C89.3992 123.295 86.3255 120.221 82.5339 120.221C78.7423 120.221 75.6686 123.295 75.6686 127.086C75.6686 130.878 78.7423 133.952 82.5339 133.952Z" fill="#FFB6B6"/>
<path d="M75.9415 131.183L77.5828 132.494L75.7201 125.425C75.7201 125.425 80.9244 125.315 81.3673 122.436C81.3673 122.436 85.4644 122.325 86.5717 122.325C87.679 122.325 88.1786 129.652 88.1786 129.652C88.1786 129.652 90.3366 123.654 88.1219 120.553C85.9073 117.453 86.6824 119.335 86.2395 118.228C85.7966 117.121 81.2566 116.102 78.3776 117.231C75.4986 118.36 75.3879 119.97 74.502 119.985C73.6162 120 70.5157 124.429 73.3947 127.972C76.2737 131.516 75.9415 131.183 75.9415 131.183Z" fill="#2F2E41"/>
<path d="M97.6391 176.235C98.4529 175.586 99.0525 174.807 99.3904 174.036L107.533 168.341L104.709 164.545L96.7536 170.732C95.9276 170.89 95.0347 171.302 94.221 171.951C92.362 173.434 91.6202 175.596 92.5641 176.779C93.508 177.962 95.7802 177.718 97.6391 176.235Z" fill="#FFB6B6"/>
<path d="M66.4436 167.572C65.8398 168.42 65.4776 169.334 65.3646 170.167L59.1023 177.882L62.8608 180.755L68.8085 172.619C69.5591 172.24 70.3044 171.598 70.9082 170.75C72.2875 168.813 72.4063 166.531 71.1735 165.653C69.9406 164.775 67.823 165.634 66.4436 167.572Z" fill="#FFB6B6"/>
<path d="M94.3229 144.139C94.3229 144.139 96.316 140.817 98.3092 142.81C99.8864 144.387 108.536 154.423 112.077 158.544C113.054 159.68 113.59 161.128 113.59 162.626C113.59 164.944 112.311 167.072 110.264 168.159L99.195 174.036L96.0946 169.386L105.617 162.52L91.0009 154.548L94.3229 144.139Z" fill="#3F3D56"/>
<path d="M59.3232 174.752L57.5602 179.905L62.6538 182.563L66.5294 179.905L68.9655 174.258L61.768 172.154" fill="#3F3D56"/>
<path d="M255.47 93.576C255.264 91.4126 256.213 89.5526 257.59 89.4216C258.967 89.2906 260.25 90.9381 260.456 93.1023C260.55 93.9657 260.436 94.8391 260.123 95.6494L260.881 104.827L256.567 105.091L256.278 96.0153C255.818 95.2784 255.541 94.442 255.47 93.576Z" fill="#FFB6B6"/>
<path d="M278.975 97.9298C278.975 97.9298 271.927 93.7837 270.476 94.4056C269.025 95.0275 261.976 105.6 261.976 105.6L261.328 103.671L256.379 104.149C256.379 104.149 253.476 117.624 259.903 116.38C266.33 115.136 276.902 103.527 276.902 103.527L278.975 97.9298Z" fill="#9292FD"/>
<path d="M245.303 99.4431L255.048 97.1777L255.746 99.202L260.46 97.9287L263.569 97.0885L266.589 91.222L264.447 85.0117L258.067 84.9519L256.116 85.3355L250.673 86.406C250.213 87.1681 250.464 88.1599 251.233 88.61L251.485 88.7577L243.828 90.0835C243.828 90.0835 241.382 94.4361 245.303 99.4431Z" fill="#3F3D56"/>
<path d="M256.116 85.3355L260.46 97.9287L263.569 97.0885L266.589 91.222L264.447 85.0117L258.067 84.9519L256.116 85.3355Z" fill="#2F2E41"/>
<path d="M254.467 85.8604C255.138 85.7119 255.621 85.3197 255.547 84.9844C255.473 84.649 254.869 84.4975 254.198 84.646C253.528 84.7944 253.044 85.1867 253.118 85.522C253.193 85.8574 253.796 86.0089 254.467 85.8604Z" fill="#3F3D56"/>
</g>
<defs>
<clipPath id="clip0_1_578">
<rect width="300" height="263.276" fill="white"/>
</clipPath>
</defs>
</svg>
