<svg width="321" height="251" viewBox="0 0 321 251" fill="none" xmlns="http://www.w3.org/2000/svg">
<path d="M186.426 69.7705L180.007 66.3366L180.487 66.0793L186.907 69.5137L186.426 69.7705Z" fill="#CBCBCB"/>
<path d="M180.827 69.7705L180.347 69.5137L186.766 66.0793L187.246 66.3366L180.827 69.7705Z" fill="#CBCBCB"/>
<path d="M133.049 43.1526L132.739 43.7615L134.552 44.6973L134.862 44.0885L133.049 43.1526Z" fill="#CBCBCB"/>
<path d="M170.647 63.3245L167.037 61.4618L167.347 60.8529L170.956 62.7156L170.647 63.3245ZM163.428 59.5991L159.818 57.7362L160.128 57.1274L163.738 58.9902L163.428 59.5991ZM156.209 55.8735L152.6 54.0109L152.909 53.402L156.519 55.2647L156.209 55.8735ZM148.99 52.1481L145.381 50.2854L145.69 49.6766L149.3 51.5392L148.99 52.1481ZM141.771 48.4227L138.162 46.56L138.472 45.9512L142.081 47.8139L141.771 48.4227Z" fill="#CBCBCB"/>
<path d="M174.566 64.5782L174.256 65.187L176.07 66.1229L176.379 65.514L174.566 64.5782Z" fill="#CBCBCB"/>
<path d="M37.6433 88.9458C37.6433 89.1595 37.6364 89.3713 37.6227 89.5814C37.5456 90.7931 37.2417 91.9792 36.7269 93.0771C36.7229 93.0865 36.7182 93.0952 36.7142 93.104C36.6903 93.1549 36.6657 93.2058 36.6404 93.256C36.4873 93.5665 36.3174 93.8684 36.1316 94.1602C35.2828 95.5 34.1193 96.6086 32.7441 97.388C31.3688 98.1674 29.8241 98.5937 28.2464 98.6291L28.3416 104.138L29.5819 103.48L29.8034 103.904L28.3509 104.674L28.5284 114.905L28.5304 115.041L27.5714 115.256L27.5734 115.119L27.8753 98.6298C26.6055 98.6115 25.3519 98.3392 24.1873 97.8289C23.0228 97.3187 21.9705 96.5805 21.0915 95.6572C21.031 95.5943 20.9712 95.5293 20.9126 95.465L20.906 95.4576C20.1737 94.6533 19.5814 93.7303 19.1542 92.7275C19.1635 92.7382 19.1735 92.7483 19.1828 92.759C18.2172 90.485 18.1517 87.9252 18.9997 85.6042C19.8477 83.2831 21.5451 81.3766 23.7439 80.2752C23.7771 80.2585 23.811 80.2424 23.8443 80.2256C26.0193 79.1706 28.5085 78.977 30.8186 79.6832C33.1287 80.3895 35.091 81.9441 36.3165 84.0388C36.375 84.138 36.4316 84.2391 36.4861 84.3409C37.2474 85.7546 37.6452 87.3376 37.6433 88.9458Z" fill="#E5E5E5"/>
<path d="M36.3488 93.1093C43.3108 93.1093 48.9546 87.4254 48.9546 80.4139C48.9546 73.4024 43.3108 67.7185 36.3488 67.7185C29.3867 67.7185 23.7429 73.4024 23.7429 80.4139C23.7429 87.4254 29.3867 93.1093 36.3488 93.1093Z" fill="#E5E5E5"/>
<path opacity="0.2" d="M27.041 71.9343C25.8651 74.7044 25.7056 77.8052 26.5909 80.6828C27.4763 83.5604 29.3487 86.0272 31.8737 87.6424C34.3988 89.2576 37.4118 89.9159 40.3744 89.4998C43.337 89.0837 46.0562 87.6201 48.046 85.3708C47.3277 87.0631 46.2527 88.578 44.8953 89.8104C43.538 91.0428 41.9308 91.9633 40.1852 92.508C38.4396 93.0528 36.5972 93.2088 34.7858 92.9653C32.9743 92.7218 31.2371 92.0846 29.6945 91.0978C28.1518 90.111 26.8407 88.7983 25.8518 87.2505C24.8629 85.7027 24.22 83.9569 23.9676 82.134C23.7152 80.3112 23.8593 78.4548 24.39 76.6936C24.9207 74.9325 25.8252 73.3085 27.041 71.9343Z" fill="#252525"/>
<path d="M37.0306 115.781L35.7432 115.417L35.7459 115.278L36.1317 94.1604L36.151 93.1074L36.1513 93.0767L36.2189 89.3871L36.3165 84.0396V84.0388L36.3828 80.4141H36.4183L36.4862 84.3411L36.5746 89.4524L36.6378 93.0791V93.1059L36.6405 93.2555V93.2562L36.7628 100.326L36.7756 101.028L37.0283 115.64L37.0306 115.781Z" fill="#252525"/>
<path d="M38.3882 99.4637L36.3044 100.569L36.5948 101.124L38.6786 100.019L38.3882 99.4637Z" fill="#252525"/>
<path d="M199.758 39.3271C183.847 38.3798 167.888 38.6268 152.014 40.0662C144.363 40.7627 136.59 41.515 129.08 43.1959C123.031 44.5497 116.011 46.8379 112.242 52.1675C111.453 53.2413 110.921 54.4845 110.688 55.7998C110.455 57.1152 110.527 58.4669 110.899 59.7494C111.798 62.7876 114.033 65.3165 116.414 67.2973C121.894 71.8562 128.692 74.509 134.765 78.1309C145.853 84.7438 156.001 93.657 162.515 104.98C165.381 109.962 168.107 116.587 164.916 122.077C161.789 127.456 154.809 129.309 149.117 130.183C141.983 131.278 134.634 130.981 127.469 130.367C119.615 129.63 111.804 128.478 104.07 126.916C88.9175 123.986 73.903 120.258 58.54 118.563C50.8369 117.651 43.0689 117.425 35.3263 117.887C28.3339 118.362 21.2816 119.476 14.7127 122.015C9.65079 123.972 4.25508 126.932 1.52085 131.87C-1.11483 136.629 -0.0868359 142.117 2.78309 146.508C6.2362 151.791 11.6208 155.412 17.2191 158.058C23.5932 161.071 30.4109 163.024 37.2373 164.684C40.6995 165.527 44.1804 166.288 47.6616 167.046C48.3878 167.204 48.6981 166.08 47.9693 165.922C40.9491 164.394 33.9086 162.861 27.0628 160.65C20.7277 158.603 14.2446 155.982 9.05674 151.684C4.85975 148.208 0.869267 143.13 1.11699 137.357C1.36672 131.536 6.21554 127.473 10.968 124.971C16.9073 121.845 23.6552 120.323 30.2673 119.527C37.8383 118.677 45.4735 118.573 53.0647 119.215C68.3914 120.389 83.3757 123.905 98.403 126.972C113.002 129.952 128.056 132.711 143.017 131.946C148.947 131.643 155.301 130.788 160.536 127.773C162.934 126.393 165.095 124.447 166.314 121.914C167.411 119.504 167.758 116.816 167.309 114.203C166.46 108.464 163.076 103.143 159.699 98.5721C155.997 93.6142 151.703 89.1345 146.913 85.234C141.657 80.9738 135.99 77.2556 129.996 74.1352C126.818 72.4499 123.594 70.8293 120.565 68.8774C117.661 67.0058 114.796 64.7538 113.023 61.7156C111.489 59.0877 111.207 56.0885 112.805 53.4233C114.421 50.7277 117.205 48.8476 119.951 47.4737C126.566 44.1636 134.256 43.2776 141.494 42.3696C157.034 40.4269 172.695 39.6405 188.35 40.0168C192.155 40.1069 195.958 40.2656 199.758 40.4927C200.502 40.5368 200.499 39.371 199.758 39.3271V39.3271Z" fill="#252525"/>
<path d="M189.664 1.96298L192.068 0.0271115C190.2 -0.18034 189.433 0.845145 189.119 1.65682C187.661 1.04685 186.073 1.84625 186.073 1.84625L190.882 3.60436C190.639 2.9518 190.217 2.38242 189.664 1.96298Z" fill="#252525"/>
<path d="M178 8.09164L180.404 6.15577C178.537 5.94832 177.77 6.9738 177.456 7.78548C175.997 7.17551 174.409 7.97491 174.409 7.97491L179.218 9.73302C178.975 9.08046 178.553 8.51108 178 8.09164Z" fill="#252525"/>
<path d="M189.664 17.7952L192.068 15.8594C190.2 15.6519 189.433 16.6774 189.119 17.4891C187.661 16.8791 186.073 17.6785 186.073 17.6785L190.882 19.4366C190.639 18.7841 190.217 18.2147 189.664 17.7952Z" fill="#252525"/>
<path d="M153.634 20.6634C157.633 20.6634 160.875 17.3985 160.875 13.371C160.875 9.34353 157.633 6.07861 153.634 6.07861C149.635 6.07861 146.393 9.34353 146.393 13.371C146.393 17.3985 149.635 20.6634 153.634 20.6634Z" fill="#FF6583"/>
<path d="M176.341 35.8423H140.819C140.774 35.8429 140.73 35.8393 140.686 35.8317L157.487 6.52602C157.589 6.34346 157.738 6.19159 157.918 6.08592C158.098 5.98024 158.302 5.92456 158.51 5.92456C158.718 5.92456 158.923 5.98024 159.103 6.08592C159.283 6.19159 159.431 6.34346 159.534 6.52602L170.809 26.1917L171.349 27.1326L176.341 35.8423Z" fill="#6C63FF"/>
<path d="M196.118 35.8426H165.395L171.348 27.1336L171.776 26.5061L179.534 15.1567C179.671 14.9831 179.843 14.8404 180.039 14.7381C180.234 14.6358 180.449 14.5761 180.669 14.5629C180.889 14.5496 181.109 14.5832 181.315 14.6614C181.521 14.7395 181.709 14.8605 181.866 15.0165C181.906 15.0608 181.943 15.1076 181.977 15.1567L196.118 35.8426Z" fill="#6C63FF"/>
<path d="M145.438 103.056C148.805 104.75 150.855 106.989 150.855 109.444C150.855 114.733 141.352 119.02 129.63 119.02C124.534 119.02 119.858 118.209 116.199 116.858C120.085 118.815 125.727 120.046 132.007 120.046C143.73 120.046 153.232 115.759 153.232 110.47C153.232 107.481 150.195 104.812 145.438 103.056Z" fill="#F1F1F1"/>
<path d="M152.928 106.688C156.727 108.601 159.04 111.127 159.04 113.897C159.04 119.865 148.317 124.703 135.09 124.703C129.339 124.703 124.063 123.788 119.935 122.263C124.32 124.471 130.685 125.861 137.773 125.861C151 125.861 161.723 121.023 161.723 115.055C161.722 111.682 158.295 108.67 152.928 106.688Z" fill="#F1F1F1"/>
<path d="M142.572 104.656C144.944 105.85 146.388 107.427 146.388 109.157C146.388 112.883 139.693 115.903 131.435 115.903C128.217 115.945 125.017 115.43 121.972 114.38C124.71 115.758 128.685 116.626 133.11 116.626C141.368 116.626 148.063 113.606 148.063 109.879C148.063 107.773 145.923 105.893 142.572 104.656Z" fill="#F1F1F1"/>
<path d="M109.242 103.972C109.242 103.972 109.764 111.645 124.706 111.645C139.648 111.645 144.11 103.972 144.11 103.972H109.242Z" fill="#252525"/>
<path d="M130.451 83.8393C128.294 82.1889 125.587 81.443 122.896 81.7579C125.301 82.3417 127.424 83.76 128.894 85.7636C130.364 87.7672 131.087 90.2283 130.935 92.7148C130.783 95.2013 129.766 97.5544 128.063 99.3612C126.36 101.168 124.079 102.313 121.621 102.595C123.972 103.167 126.447 102.906 128.629 101.856C130.811 100.806 132.568 99.0318 133.604 96.831C134.641 94.6302 134.893 92.1373 134.318 89.7713C133.744 87.4054 132.379 85.3106 130.451 83.8393Z" fill="#252525"/>
<path d="M125.555 80.373H124.536V104.796H125.555V80.373Z" fill="#252525"/>
<path d="M192.51 62.2265L192.504 62.217L192.491 61.6205L195.682 56.9535L192.495 61.1739L192.483 61.3L192.374 56.5299L195.131 51.6913L192.366 55.6919L192.395 45.8093L192.395 45.7764L192.394 45.8087L192.211 53.5975L189.698 50.4337L192.203 54.2685L192.148 58.5354L189.836 54.3711L192.14 59.1627L192.109 61.5352L192.024 68.1083L192.018 68.5995C192.231 68.6011 192.442 68.5976 192.651 68.5888L192.506 62.2752L192.51 62.2265Z" fill="#CBCBCB"/>
<path d="M177.228 64.2787L177.223 64.2693L177.209 63.6727L180.4 59.0058L177.213 63.2262L177.201 63.3523L177.092 58.5821L179.849 53.7436L177.084 57.7441L177.113 47.8615L177.113 47.8286L177.112 47.861L176.929 55.6498L174.417 52.486L176.921 56.3208L176.866 60.5876L174.554 56.4234L176.858 61.2149L176.827 63.5875L176.742 70.1606L176.736 70.6517C176.949 70.6534 177.16 70.6498 177.369 70.641L177.224 64.3274L177.228 64.2787Z" fill="#CBCBCB"/>
<path d="M184.699 57.7804L184.694 57.771L184.68 57.1744L187.872 52.5075L184.684 56.7279L184.672 56.854L184.563 52.0838L187.32 47.2453L184.555 51.2458L184.584 41.3632L184.584 41.3303L184.583 41.3627L184.4 49.1515L181.888 45.9877L184.392 49.8225L184.337 54.0893L182.025 49.925L184.329 54.7166L184.298 57.0891L184.214 63.6623L184.208 64.1534C184.42 64.1551 184.631 64.1515 184.84 64.1427L184.695 57.8291L184.699 57.7804Z" fill="#CBCBCB"/>
<path d="M58.484 171.348C60.7347 171.348 62.5592 169.511 62.5592 167.244C62.5592 164.977 60.7347 163.14 58.484 163.14C56.2333 163.14 54.4088 164.977 54.4088 167.244C54.4088 169.511 56.2333 171.348 58.484 171.348Z" fill="#6C63FF"/>
</svg>
