<svg width="300" height="156" viewBox="0 0 300 156" fill="none" xmlns="http://www.w3.org/2000/svg">
<g clip-path="url(#clip0_2_905)">
<path d="M150 138.55C232.843 138.55 300 136.671 300 134.354C300 132.036 232.843 130.158 150 130.158C67.1573 130.158 0 132.036 0 134.354C0 136.671 67.1573 138.55 150 138.55Z" fill="#E6E6E6"/>
<path d="M229.939 88.8895C229.75 88.8921 229.561 88.8947 229.369 88.8947C229.177 88.8947 228.987 88.8921 228.798 88.8895C218.757 88.6611 211.479 82.3875 213.332 75.805L217.849 59.7472L218.99 55.6841L239.228 56.0291L240.458 60.004L245.299 75.6493C247.349 82.2681 240.071 88.6611 229.939 88.8895Z" fill="#3F3D56"/>
<path opacity="0.2" d="M240.458 60.004C237.007 61.9765 233.093 62.9926 229.118 62.9474C225.144 62.9023 221.254 61.7975 217.849 59.7472L218.99 55.6841L239.228 56.0291L240.458 60.004Z" fill="black"/>
<path d="M239.604 76.3378C240.478 73.0796 243.351 68.3795 251.409 62.7125C265.462 52.8277 257.079 45.4161 256.716 45.1056C255.954 44.4542 256.066 43.7228 256.977 43.4729C257.507 43.3671 258.053 43.3756 258.578 43.498C259.104 43.6204 259.598 43.8537 260.026 44.1824C260.481 44.5588 270.979 53.5235 255.121 64.6759C240.849 74.7143 243.883 81.267 243.918 81.3299C244.301 82.0307 243.687 82.5915 242.547 82.5839C241.407 82.5764 240.172 82.0026 239.788 81.3025C239.708 81.1544 238.789 79.371 239.604 76.3378Z" fill="#3F3D56"/>
<path d="M220.028 91.2298C219.721 91.2298 219.418 91.1694 219.135 91.052C218.851 90.9347 218.594 90.7627 218.377 90.5458C218.16 90.329 217.988 90.0716 217.871 89.7883C217.753 89.5049 217.693 89.2013 217.693 88.8946V78.7758C217.693 78.1565 217.939 77.5625 218.377 77.1246C218.815 76.6867 219.409 76.4407 220.028 76.4407C220.647 76.4407 221.241 76.6867 221.679 77.1246C222.117 77.5625 222.363 78.1565 222.363 78.7758V88.8946C222.363 89.2013 222.303 89.5049 222.185 89.7883C222.068 90.0716 221.896 90.329 221.679 90.5458C221.462 90.7627 221.205 90.9347 220.922 91.052C220.638 91.1694 220.335 91.2298 220.028 91.2298Z" fill="#3F3D56"/>
<path d="M222.076 67.207C221.947 67.4856 221.766 67.7362 221.541 67.9445C221.316 68.1528 221.052 68.3148 220.764 68.4212C220.476 68.5275 220.171 68.5762 219.864 68.5644C219.558 68.5525 219.257 68.4805 218.978 68.3523L209.786 64.1229C209.224 63.8637 208.788 63.3919 208.573 62.8113C208.359 62.2307 208.384 61.5888 208.642 61.0266C208.901 60.4644 209.372 60.0278 209.953 59.8129C210.533 59.5979 211.175 59.6221 211.738 59.8802L220.93 64.1096C221.209 64.2378 221.459 64.4195 221.668 64.6446C221.876 64.8696 222.038 65.1334 222.144 65.4211C222.251 65.7087 222.299 66.0144 222.288 66.3209C222.276 66.6273 222.204 66.9284 222.076 67.207Z" fill="#3F3D56"/>
<path d="M236.662 67.207C236.79 67.4856 236.972 67.7362 237.197 67.9445C237.422 68.1529 237.686 68.3149 237.973 68.4212C238.261 68.5276 238.567 68.5762 238.873 68.5644C239.179 68.5526 239.48 68.4805 239.759 68.3524L248.952 64.123C249.514 63.8641 249.951 63.3924 250.166 62.8115C250.381 62.2306 250.356 61.5882 250.097 61.0256C249.838 60.463 249.366 60.0262 248.786 59.8115C248.205 59.5967 247.562 59.6214 247 59.8803L237.807 64.1096C237.528 64.2378 237.278 64.4196 237.07 64.6446C236.861 64.8696 236.699 65.1335 236.593 65.4211C236.487 65.7087 236.438 66.0145 236.45 66.3209C236.461 66.6273 236.534 66.9284 236.662 67.207Z" fill="#3F3D56"/>
<path d="M238.709 91.2298C239.016 91.2298 239.319 91.1694 239.603 91.052C239.886 90.9347 240.143 90.7627 240.36 90.5458C240.577 90.329 240.749 90.0716 240.866 89.7883C240.984 89.5049 241.044 89.2013 241.044 88.8946V78.7758C241.044 78.1565 240.798 77.5625 240.36 77.1246C239.922 76.6867 239.328 76.4407 238.709 76.4407C238.09 76.4407 237.496 76.6867 237.058 77.1246C236.62 77.5625 236.374 78.1565 236.374 78.7758V88.8946C236.374 89.2013 236.434 89.5049 236.552 89.7883C236.669 90.0716 236.841 90.329 237.058 90.5458C237.275 90.7627 237.532 90.9347 237.815 91.052C238.099 91.1694 238.402 91.2298 238.709 91.2298Z" fill="#3F3D56"/>
<path d="M248.468 25.7205C248.67 25.4663 248.815 25.1723 248.895 24.8577C248.975 24.5431 248.987 24.2152 248.931 23.8955L247.66 16.4191L246.389 8.94271C246.321 8.53903 246.147 8.16053 245.886 7.84525C245.625 7.52997 245.285 7.28902 244.901 7.14661C244.517 7.00419 244.103 6.96535 243.699 7.03397C243.295 7.10259 242.917 7.27626 242.601 7.53752L236.762 12.3764L233.244 15.2916C230.898 14.8744 228.5 14.8382 226.142 15.1845L222.753 12.3764L216.914 7.53752C216.599 7.27626 216.22 7.10259 215.817 7.03397C215.413 6.96535 214.998 7.0042 214.614 7.14661C214.231 7.28902 213.891 7.52997 213.63 7.84526C213.368 8.16054 213.195 8.53904 213.126 8.94271L211.855 16.4191L210.584 23.8955C210.516 24.2885 210.552 24.6923 210.686 25.0677C208.508 28.4066 207.264 32.2681 207.085 36.2505C206.905 40.2329 207.795 44.1907 209.664 47.7123C211.532 51.2339 214.31 54.1905 217.708 56.2748C221.106 58.359 225.001 59.4946 228.987 59.5634C232.972 59.6323 236.904 58.6319 240.372 56.6664C243.84 54.7008 246.719 51.8419 248.707 48.3869C250.696 44.932 251.723 41.0073 251.681 37.021C251.639 33.0348 250.529 29.1326 248.468 25.7205Z" fill="#3F3D56"/>
<path d="M216.329 10.6013C216.19 10.6015 216.053 10.6264 215.923 10.6749C215.733 10.7444 215.564 10.8633 215.434 11.0196C215.305 11.1759 215.219 11.3638 215.186 11.5642L213.645 20.6307C213.611 20.8306 213.63 21.0359 213.701 21.2259C213.772 21.416 213.891 21.5842 214.047 21.7135C214.203 21.8428 214.39 21.9288 214.59 21.9628C214.79 21.9967 214.995 21.9775 215.185 21.907L223.808 18.7084C223.998 18.6379 224.166 18.5186 224.295 18.3625C224.425 18.2064 224.511 18.0191 224.545 17.8192C224.579 17.6194 224.559 17.4142 224.489 17.2241C224.418 17.0341 224.299 16.8659 224.143 16.7366L217.062 10.8685C216.856 10.6964 216.597 10.6018 216.329 10.6013Z" fill="#E6E6E6"/>
<path d="M243.187 10.6013C242.919 10.6018 242.659 10.6964 242.454 10.8685L235.372 16.7366C235.216 16.8659 235.097 17.0341 235.027 17.2241C234.956 17.4142 234.937 17.6194 234.971 17.8192C235.005 18.0191 235.091 18.2064 235.22 18.3625C235.35 18.5186 235.518 18.6379 235.708 18.7084L244.33 21.907C244.52 21.9775 244.725 21.9967 244.925 21.9628C245.125 21.9288 245.313 21.8428 245.469 21.7135C245.625 21.5842 245.744 21.416 245.815 21.2259C245.885 21.0359 245.904 20.8306 245.87 20.6307L244.329 11.5642C244.296 11.3638 244.211 11.1759 244.081 11.0196C243.952 10.8633 243.783 10.7444 243.592 10.6749C243.462 10.6264 243.325 10.6015 243.187 10.6013Z" fill="#E6E6E6"/>
<path d="M229.369 43.4894C231.088 43.4894 232.482 42.0955 232.482 40.3759C232.482 38.6564 231.088 37.2625 229.369 37.2625C227.649 37.2625 226.255 38.6564 226.255 40.3759C226.255 42.0955 227.649 43.4894 229.369 43.4894Z" fill="#E6E6E6"/>
<path d="M229.369 39.5975C230.515 39.5975 231.444 39.249 231.444 38.8191C231.444 38.3893 230.515 38.0408 229.369 38.0408C228.222 38.0408 227.293 38.3893 227.293 38.8191C227.293 39.249 228.222 39.5975 229.369 39.5975Z" fill="#3F3D56"/>
<path d="M227.812 42.1921H230.666V45.6948C230.666 45.8822 230.629 46.0678 230.557 46.2409C230.486 46.414 230.38 46.5714 230.248 46.7039C230.115 46.8364 229.958 46.9415 229.785 47.0132C229.612 47.0849 229.426 47.1218 229.239 47.1218C228.86 47.1218 228.497 46.9715 228.23 46.7039C227.962 46.4363 227.812 46.0733 227.812 45.6948L227.812 42.1921Z" fill="#FF6584"/>
<path d="M229.542 6.87671C229.392 7.18706 229.247 7.50078 229.11 7.8209C227.5 11.5762 226.957 15.7029 227.541 19.7469C227.833 19.3231 228.14 18.8815 228.452 18.4351C227.784 14.5539 228.16 10.5646 229.542 6.87671Z" fill="#3F3D56"/>
<path d="M231.877 9.73071C231.727 10.0411 231.582 10.3548 231.445 10.6749C229.835 14.4302 229.292 18.5569 229.876 22.601C230.168 22.1771 230.475 21.7355 230.787 21.2891C230.119 17.4079 230.495 13.4186 231.877 9.73071Z" fill="#3F3D56"/>
<path d="M239.076 65.7611L238.747 61.5777L238.418 57.3942C238.401 57.1683 238.324 56.9511 238.195 56.7644C238.067 56.5776 237.892 56.4279 237.687 56.3304C237.483 56.2328 237.256 56.1908 237.03 56.2086C236.805 56.2263 236.587 56.3033 236.401 56.4316L232.942 58.8082L230.417 60.5437C230.255 60.3547 230.055 60.2029 229.829 60.0989C229.603 59.9948 229.358 59.941 229.109 59.941C228.861 59.941 228.615 59.9948 228.389 60.0989C228.164 60.2029 227.963 60.3547 227.802 60.5437L225.276 58.8082L221.818 56.4316C221.631 56.3032 221.414 56.2263 221.188 56.2086C220.962 56.1908 220.735 56.2328 220.531 56.3304C220.326 56.4279 220.151 56.5776 220.023 56.7643C219.895 56.9511 219.818 57.1683 219.8 57.3942L219.471 61.5777L219.142 65.7611C219.124 65.987 219.166 66.2136 219.264 66.4181C219.361 66.6226 219.511 66.7978 219.698 66.9261C219.884 67.0544 220.102 67.1313 220.328 67.1491C220.553 67.1669 220.78 67.1248 220.985 67.0273L224.772 65.2204L227.884 63.7358C228.044 63.8981 228.235 64.0269 228.445 64.1148C228.655 64.2028 228.881 64.248 229.109 64.248C229.337 64.248 229.563 64.2028 229.773 64.1148C229.983 64.0269 230.174 63.8981 230.334 63.7358L233.446 65.2204L237.234 67.0273C237.438 67.1248 237.665 67.1669 237.891 67.1491C238.117 67.1313 238.334 67.0544 238.521 66.9261C238.707 66.7978 238.857 66.6226 238.954 66.4181C239.052 66.2136 239.094 65.987 239.076 65.7611Z" fill="#9292FD"/>
<path d="M225.217 37.7814C225.647 37.7814 225.996 37.4329 225.996 37.003C225.996 36.5731 225.647 36.2246 225.217 36.2246C224.787 36.2246 224.439 36.5731 224.439 37.003C224.439 37.4329 224.787 37.7814 225.217 37.7814Z" fill="#E6E6E6"/>
<path d="M233.52 37.7814C233.95 37.7814 234.298 37.4329 234.298 37.003C234.298 36.5731 233.95 36.2246 233.52 36.2246C233.09 36.2246 232.742 36.5731 232.742 37.003C232.742 37.4329 233.09 37.7814 233.52 37.7814Z" fill="#E6E6E6"/>
<path d="M78.7645 82.0128C78.9539 82.0154 79.1433 82.018 79.3353 82.018C79.5273 82.018 79.7167 82.0154 79.9061 82.0128C89.9471 81.7844 97.2249 75.5108 95.3724 68.9283L90.8552 52.8705L89.7136 48.8074L69.4759 49.1524L68.2461 53.1273L63.4046 68.7726C61.3549 75.3914 68.6327 81.7844 78.7645 82.0128Z" fill="#3F3D56"/>
<path opacity="0.2" d="M68.2461 53.1273C71.6968 55.0998 75.6112 56.1159 79.5856 56.0707C83.56 56.0256 87.4503 54.9208 90.8553 52.8705L89.7137 48.8074L69.4759 49.1524L68.2461 53.1273Z" fill="black"/>
<path d="M66.6422 67.5578C64.4578 64.987 59.8497 61.9683 50.1418 60.2944C33.2104 57.3736 37.6161 47.0876 37.8115 46.6515C38.2216 45.7366 37.8069 45.1238 36.8764 45.2878C36.3527 45.4187 35.863 45.66 35.4402 45.9955C35.0174 46.3311 34.6712 46.7532 34.4248 47.2335C34.1746 47.7684 28.5225 60.3628 47.6274 63.6571C64.8219 66.6232 64.8832 73.8442 64.8786 73.9159C64.8329 74.713 65.6271 74.9574 66.6544 74.4627C67.6817 73.968 68.5525 72.921 68.5996 72.124C68.6092 71.9556 68.6761 69.9508 66.6422 67.5578Z" fill="#3F3D56"/>
<path d="M88.6758 84.3532C88.9825 84.3532 89.2861 84.2928 89.5694 84.1754C89.8527 84.0581 90.1102 83.8861 90.327 83.6693C90.5438 83.4524 90.7158 83.195 90.8332 82.9117C90.9505 82.6284 91.0109 82.3247 91.0109 82.0181V71.8992C91.0102 71.2804 90.7638 70.6872 90.326 70.2498C89.8882 69.8125 89.2946 69.5669 88.6758 69.5669C88.057 69.5669 87.4635 69.8125 87.0256 70.2498C86.5878 70.6872 86.3414 71.2804 86.3407 71.8992V82.0181C86.3407 82.3247 86.4011 82.6284 86.5184 82.9117C86.6358 83.195 86.8078 83.4524 87.0246 83.6693C87.2415 83.8861 87.4989 84.0581 87.7822 84.1754C88.0655 84.2928 88.3692 84.3532 88.6758 84.3532Z" fill="#3F3D56"/>
<path d="M86.6284 60.3304C86.7566 60.609 86.9383 60.8596 87.1634 61.0679C87.3884 61.2762 87.6522 61.4382 87.9399 61.5446C88.2275 61.6509 88.5332 61.6996 88.8397 61.6878C89.1461 61.676 89.4472 61.6039 89.7258 61.4757L98.9183 57.2463C99.1973 57.1184 99.4482 56.9367 99.6569 56.7117C99.8655 56.4867 100.028 56.2227 100.134 55.935C100.241 55.6472 100.29 55.3413 100.278 55.0346C100.266 54.728 100.194 54.4267 100.066 54.1479C99.9377 53.8692 99.7557 53.6184 99.5305 53.41C99.3053 53.2016 99.0412 53.0396 98.7533 52.9333C98.4654 52.8271 98.1594 52.7786 97.8528 52.7906C97.5462 52.8027 97.245 52.8751 96.9663 53.0036L87.7737 57.233C87.4951 57.3612 87.2445 57.543 87.0362 57.768C86.8279 57.993 86.6659 58.2569 86.5596 58.5445C86.4532 58.8321 86.4045 59.1378 86.4163 59.4443C86.4282 59.7507 86.5002 60.0518 86.6284 60.3304Z" fill="#3F3D56"/>
<path d="M72.0423 60.3304C71.9141 60.609 71.7323 60.8596 71.5073 61.0679C71.2823 61.2762 71.0184 61.4382 70.7308 61.5446C70.4432 61.6509 70.1374 61.6996 69.831 61.6878C69.5246 61.676 69.2235 61.6039 68.9449 61.4757L59.7523 57.2463C59.4734 57.1184 59.2225 56.9367 59.0138 56.7117C58.8052 56.4867 58.6429 56.2227 58.5363 55.935C58.4297 55.6472 58.3809 55.3413 58.3927 55.0346C58.4044 54.728 58.4765 54.4267 58.6047 54.1479C58.733 53.8692 58.9149 53.6184 59.1402 53.41C59.3654 53.2016 59.6295 53.0396 59.9174 52.9333C60.2052 52.8271 60.5112 52.7786 60.8178 52.7906C61.1245 52.8027 61.4257 52.8751 61.7043 53.0036L70.8969 57.233C71.1755 57.3612 71.4261 57.543 71.6345 57.768C71.8428 57.993 72.0048 58.2569 72.1111 58.5445C72.2175 58.8321 72.2661 59.1378 72.2543 59.4443C72.2425 59.7507 72.1704 60.0518 72.0423 60.3304Z" fill="#3F3D56"/>
<path d="M69.9949 84.3532C69.6882 84.3532 69.3846 84.2928 69.1013 84.1754C68.8179 84.0581 68.5605 83.8861 68.3437 83.6693C68.1268 83.4524 67.9548 83.195 67.8375 82.9117C67.7201 82.6284 67.6598 82.3247 67.6598 82.0181V71.8992C67.6605 71.2804 67.9068 70.6872 68.3447 70.2498C68.7825 69.8125 69.3761 69.5669 69.9949 69.5669C70.6137 69.5669 71.2072 69.8125 71.6451 70.2498C72.0829 70.6872 72.3292 71.2804 72.33 71.8992V82.0181C72.33 82.3247 72.2696 82.6284 72.1523 82.9117C72.0349 83.195 71.8629 83.4524 71.6461 83.6693C71.4292 83.8861 71.1718 84.0581 70.8885 84.1754C70.6052 84.2928 70.3015 84.3532 69.9949 84.3532Z" fill="#3F3D56"/>
<path d="M98.0179 18.191C98.1524 17.8156 98.1875 17.4118 98.1196 17.0189L96.8487 9.54243L95.5778 2.06602C95.5092 1.66234 95.3355 1.28384 95.0743 0.968557C94.813 0.653275 94.4734 0.412323 94.0895 0.269912C93.7056 0.1275 93.2909 0.088648 92.8873 0.157267C92.4836 0.225886 92.1051 0.399558 91.7898 0.660821L85.9505 5.49965L82.5617 8.30778C80.204 7.96151 77.806 7.99767 75.4598 8.41486L71.9418 5.49964L66.1025 0.660811C65.7872 0.399547 65.4087 0.225876 65.005 0.157257C64.6014 0.0886372 64.1867 0.127485 63.8028 0.269896C63.4189 0.412307 63.0793 0.653264 62.818 0.968547C62.5567 1.28383 62.3831 1.66233 62.3145 2.06601L61.0436 9.54243L59.7727 17.0189C59.7166 17.3385 59.7289 17.6664 59.8088 17.981C59.8886 18.2956 60.0343 18.5896 60.2361 18.8438C58.1721 22.2567 57.0605 26.1604 57.017 30.1487C56.9735 34.137 57.9996 38.064 59.9886 41.5212C61.9776 44.9783 64.8568 47.8393 68.3266 49.8062C71.7963 51.7732 75.7298 52.7743 79.7177 52.7054C83.7056 52.6365 87.6022 51.5001 91.0019 49.4144C94.4016 47.3288 97.1803 44.3701 99.0486 40.8463C100.917 37.3225 101.807 33.3623 101.626 29.3779C101.444 25.3936 100.199 21.5306 98.0179 18.191Z" fill="#3F3D56"/>
<path d="M91.6421 3.99179L84.561 9.85962C84.4049 9.98896 84.2855 10.1574 84.215 10.3474C84.1445 10.5374 84.1253 10.7427 84.1593 10.9425C84.1933 11.1424 84.2792 11.3297 84.4086 11.4858C84.5379 11.6419 84.706 11.7611 84.8961 11.8316L93.5185 15.0303C93.7085 15.1008 93.9138 15.12 94.1137 15.0861C94.3135 15.0521 94.5009 14.9661 94.657 14.8368C94.8131 14.7074 94.9324 14.5393 95.0029 14.3492C95.0735 14.1591 95.0927 13.9539 95.0587 13.754L93.5176 4.68744C93.4847 4.48713 93.3991 4.29918 93.2696 4.1429C93.1401 3.98662 92.9712 3.86765 92.7805 3.79822C92.6508 3.74973 92.5135 3.72481 92.375 3.72461C92.1069 3.72511 91.8476 3.81967 91.6421 3.99179Z" fill="#E6E6E6"/>
<path d="M65.1118 3.79822C64.921 3.86765 64.7522 3.98662 64.6227 4.14289C64.4931 4.29917 64.4076 4.48713 64.3747 4.68744L62.8336 13.754C62.7996 13.9539 62.8188 14.1591 62.8893 14.3492C62.9599 14.5393 63.0792 14.7074 63.2353 14.8368C63.3914 14.9661 63.5788 15.0521 63.7786 15.0861C63.9785 15.12 64.1838 15.1008 64.3738 15.0303L72.9962 11.8316C73.1863 11.7611 73.3544 11.6419 73.4837 11.4858C73.6131 11.3297 73.699 11.1424 73.733 10.9425C73.767 10.7427 73.7478 10.5374 73.6773 10.3474C73.6068 10.1574 73.4875 9.98921 73.3315 9.85987L66.2502 3.99179C66.0447 3.81966 65.7854 3.72511 65.5173 3.72461C65.3788 3.72481 65.2415 3.74973 65.1118 3.79822Z" fill="#E6E6E6"/>
<path d="M79.3353 36.6127C81.0549 36.6127 82.4488 35.2188 82.4488 33.4992C82.4488 31.7797 81.0549 30.3857 79.3353 30.3857C77.6158 30.3857 76.2218 31.7797 76.2218 33.4992C76.2218 35.2188 77.6158 36.6127 79.3353 36.6127Z" fill="#E6E6E6"/>
<path d="M79.3353 32.721C80.4817 32.721 81.411 32.3726 81.411 31.9427C81.411 31.5128 80.4817 31.1643 79.3353 31.1643C78.189 31.1643 77.2597 31.5128 77.2597 31.9427C77.2597 32.3726 78.189 32.721 79.3353 32.721Z" fill="#3F3D56"/>
<path d="M79.4651 40.2454C79.2777 40.2454 79.0921 40.2084 78.919 40.1367C78.7458 40.065 78.5885 39.9599 78.456 39.8274C78.3235 39.6949 78.2184 39.5376 78.1467 39.3644C78.075 39.1913 78.0381 39.0057 78.0381 38.8183V35.3157H80.8921V38.8183C80.8921 39.0057 80.8552 39.1913 80.7835 39.3644C80.7118 39.5376 80.6066 39.6949 80.4741 39.8274C80.3416 39.9599 80.1843 40.065 80.0112 40.1367C79.838 40.2084 79.6525 40.2454 79.4651 40.2454Z" fill="#FF6584"/>
<path d="M79.1621 0C79.3118 0.310354 79.4571 0.624064 79.5937 0.94419C81.204 4.69949 81.747 8.82621 81.1631 12.8702C80.8709 12.4464 80.5639 12.0048 80.2517 11.5584C80.9204 7.67717 80.5444 3.68788 79.1621 0Z" fill="#3F3D56"/>
<path d="M76.827 2.854C76.9766 3.16436 77.122 3.47807 77.2586 3.79819C78.8688 7.55349 79.4119 11.6802 78.8279 15.7242C78.5358 15.3004 78.2288 14.8588 77.9165 14.4124C78.5853 10.5312 78.2093 6.54189 76.827 2.854Z" fill="#3F3D56"/>
<path d="M69.6276 13.4794L69.9566 9.29592L70.2855 5.11245C70.3033 4.88656 70.3802 4.66934 70.5085 4.4826C70.6369 4.29586 70.8121 4.14619 71.0166 4.04863C71.2211 3.95107 71.4476 3.90906 71.6735 3.92682C71.8994 3.94459 72.1166 4.0215 72.3034 4.14982L75.7619 6.52644L78.2874 8.26193C78.4488 8.07294 78.6493 7.92119 78.875 7.81714C79.1007 7.71309 79.3463 7.65921 79.5948 7.65921C79.8433 7.65921 80.0889 7.71309 80.3146 7.81714C80.5403 7.92119 80.7408 8.07294 80.9022 8.26193L83.4277 6.52644L86.8862 4.14982C87.073 4.0215 87.2902 3.94459 87.5161 3.92682C87.742 3.90906 87.9685 3.95107 88.173 4.04863C88.3775 4.14619 88.5527 4.29586 88.6811 4.4826C88.8094 4.66934 88.8863 4.88656 88.9041 5.11245L89.233 9.29592L89.562 13.4794C89.5797 13.7053 89.5377 13.9318 89.4402 14.1363C89.3426 14.3408 89.1929 14.516 89.0062 14.6444C88.8195 14.7727 88.6022 14.8496 88.3764 14.8674C88.1505 14.8851 87.9239 14.8431 87.7194 14.7456L83.9319 12.9387L80.8199 11.4541C80.6598 11.6163 80.469 11.7452 80.2587 11.8331C80.0484 11.921 79.8227 11.9663 79.5948 11.9663C79.3668 11.9663 79.1411 11.921 78.9308 11.8331C78.7205 11.7452 78.5298 11.6163 78.3696 11.4541L75.2577 12.9387L71.4702 14.7456C71.2657 14.8431 71.0391 14.8851 70.8132 14.8674C70.5874 14.8496 70.3701 14.7727 70.1834 14.6444C69.9967 14.5161 69.847 14.3408 69.7494 14.1363C69.6519 13.9318 69.6099 13.7053 69.6276 13.4794Z" fill="#9292FD"/>
<path d="M82.7083 30.1264C82.7083 30.5562 83.0568 30.1264 83.4867 30.1264C83.9165 30.1264 84.265 30.5562 84.265 30.1264C84.2646 29.9202 84.1824 29.7226 84.0365 29.577C83.8906 29.4314 83.6928 29.3496 83.4867 29.3496C83.2805 29.3496 83.0828 29.4314 82.9368 29.577C82.7909 29.7226 82.7087 29.9202 82.7083 30.1264Z" fill="#E6E6E6"/>
<path d="M75.9624 30.1264C75.9624 30.5562 75.6139 30.1264 75.184 30.1264C74.7541 30.1264 74.4056 30.5562 74.4056 30.1264C74.4061 29.9202 74.4883 29.7226 74.6342 29.577C74.7801 29.4314 74.9779 29.3496 75.184 29.3496C75.3902 29.3496 75.5879 29.4314 75.7338 29.577C75.8798 29.7226 75.962 29.9202 75.9624 30.1264Z" fill="#E6E6E6"/>
<path d="M162.32 88.896V83.9482H137.582V84.2577V88.896V128.787V133.734H142.53H162.32V128.787H142.53V88.896H162.32Z" fill="#3F3D56"/>
<path d="M174.38 83.9485V133.734H199.118V83.9485H174.38ZM194.171 128.787H179.328V88.8962H194.171V128.787Z" fill="#9292FD"/>
<path d="M105.731 128.787V84.2578H100.784V128.787V133.734H105.731H125.522V128.787H105.731Z" fill="#9292FD"/>
<path d="M89.6515 88.896V83.9482H64.9133V84.2577V88.896V106.213V111.161V128.787V133.734H69.861H89.6515V128.787H69.861V111.161H89.6515V106.213H69.861V88.896H89.6515Z" fill="#3F3D56"/>
<path d="M283.229 88.896V83.9482H258.49V84.2577V88.896V106.213V111.161V128.787V133.734H263.438H283.229V128.787H263.438V111.161H283.229V106.213H263.438V88.896H283.229Z" fill="#9292FD"/>
<path d="M48.2149 84.2578V125.149L35.1696 112.104L35.1399 112.134L35.1122 112.107L21.776 125.443V84.1033H16.8283V133.58H21.776V132.44L35.1422 119.073L48.2149 132.146V133.734H53.1626V84.2578H48.2149Z" fill="#3F3D56"/>
<path d="M242.101 84.2578V85.3976L228.735 98.7639L215.662 85.6912V84.1033H210.714V133.58H215.662V92.6881L228.707 105.733L228.737 105.703L228.765 105.731L242.101 92.3946V133.734H247.049V84.2578H242.101Z" fill="#3F3D56"/>
<path d="M113.064 53.7793C114.741 53.7793 116.101 52.4196 116.101 50.7424C116.101 49.0652 114.741 47.7056 113.064 47.7056C111.387 47.7056 110.027 49.0652 110.027 50.7424C110.027 52.4196 111.387 53.7793 113.064 53.7793Z" fill="#9292FD"/>
<path d="M38.155 87.5222C39.8322 87.5222 41.1919 86.1626 41.1919 84.4853C41.1919 82.8081 39.8322 81.4485 38.155 81.4485C36.4778 81.4485 35.1181 82.8081 35.1181 84.4853C35.1181 86.1626 36.4778 87.5222 38.155 87.5222Z" fill="#9292FD"/>
<path d="M98.2174 155.008C99.8946 155.008 101.254 153.648 101.254 151.971C101.254 150.294 99.8946 148.934 98.2174 148.934C96.5402 148.934 95.1805 150.294 95.1805 151.971C95.1805 153.648 96.5402 155.008 98.2174 155.008Z" fill="#9292FD"/>
<path d="M174.476 62.8899C176.154 62.8899 177.513 61.5302 177.513 59.853C177.513 58.1758 176.154 56.8162 174.476 56.8162C172.799 56.8162 171.44 58.1758 171.44 59.853C171.44 61.5302 172.799 62.8899 174.476 62.8899Z" fill="#9292FD"/>
<path d="M263.895 152.309C265.572 152.309 266.932 150.949 266.932 149.272C266.932 147.595 265.572 146.235 263.895 146.235C262.218 146.235 260.858 147.595 260.858 149.272C260.858 150.949 262.218 152.309 263.895 152.309Z" fill="#9292FD"/>
<path d="M266.932 72.6753C268.609 72.6753 269.969 71.3156 269.969 69.6384C269.969 67.9612 268.609 66.6016 266.932 66.6016C265.255 66.6016 263.895 67.9612 263.895 69.6384C263.895 71.3156 265.255 72.6753 266.932 72.6753Z" fill="#9292FD"/>
<path d="M228.465 127.339C230.142 127.339 231.502 125.979 231.502 124.302C231.502 122.625 230.142 121.265 228.465 121.265C226.788 121.265 225.428 122.625 225.428 124.302C225.428 125.979 226.788 127.339 228.465 127.339Z" fill="#9292FD"/>
</g>
<defs>
<clipPath id="clip0_2_905">
<rect width="300" height="155.008" fill="white"/>
</clipPath>
</defs>
</svg>
